<svg xmlns="http://www.w3.org/2000/svg" width="28" height="28" viewBox="0 0 28 28">
  <g id="Grupo_906" data-name="Grupo 906" transform="translate(-1082 -666)">
    <circle id="Elipse_66" data-name="Elipse 66" cx="14" cy="14" r="14" transform="translate(1082 666)" fill="#3498db"/>
    <g id="edit" transform="translate(1089 672.739)">
      <path id="Caminho_427" data-name="Caminho 427" d="M13.163,46.7a.355.355,0,0,0-.355.355V50.2a1.067,1.067,0,0,1-1.066,1.066H1.776A1.067,1.067,0,0,1,.71,50.2V40.948a1.067,1.067,0,0,1,1.066-1.066H4.93a.355.355,0,1,0,0-.71H1.776A1.778,1.778,0,0,0,0,40.948V50.2a1.778,1.778,0,0,0,1.776,1.776h9.967A1.778,1.778,0,0,0,13.519,50.2V47.051a.355.355,0,0,0-.355-.355Zm0,0" transform="translate(0 -37.529)" fill="#fff"/>
      <path id="Caminho_428" data-name="Caminho 428" d="M117.725.729a1.6,1.6,0,0,0-2.261,0l-6.337,6.337a.355.355,0,0,0-.091.156l-.833,3.009a.355.355,0,0,0,.437.437l3.009-.833a.355.355,0,0,0,.156-.091l6.337-6.337a1.6,1.6,0,0,0,0-2.261ZM109.9,7.3l5.186-5.187,1.673,1.673-5.187,5.187Zm-.334.67L110.9,9.3l-1.848.512ZM117.64,2.9l-.377.377L115.59,1.608l.377-.377a.888.888,0,0,1,1.256,0l.417.417A.889.889,0,0,1,117.64,2.9Zm0,0" transform="translate(-104.347)" fill="#fff"/>
    </g>
  </g>
</svg>
